<svg xmlns="http://www.w3.org/2000/svg" version="1.1" xmlns:xlink="http://www.w3.org/1999/xlink" xmlns:svgjs="http://svgjs.com/svgjs" height="115.11480407714843" width="259.3500061035156"><defs id="SvgjsDefs1102"></defs><g id="SvgjsG1103" rel="mainfill" name="main_text" xmlns:name="main_text" transform="translate(0,-125.1951934814453)" fill="#000000"><path d="M15.58 212.05L24.24 213.74L24.77 213.94L25.62 220.69L25.37 220.80L24.16 221.00Q23.99 220.84 23.92 220.56L23.05 218.64L21.73 216.84L21.02 216.16L20.04 215.45L19.61 215.20L18.34 214.70L15.97 214.32L14.32 214.32L12.52 214.63L10.35 215.56L9.19 216.46L8.34 217.35L7.01 219.46L6.26 221.15L5.58 224.27L5.52 224.90L5.74 228.48L6.37 230.95L7.46 233.32L8.70 235.21L9.89 236.42L11.16 237.23L13.21 237.94L13.81 238.05L16.76 238.05L18.15 237.75L19.84 237.01L20.48 236.61L22.23 234.92L23.31 233.24L24.30 230.75L24.44 230.59L25.89 230.89L25.92 231.10L24.71 237.89L21.48 239.18L17.86 240.02L13.61 240.29L12.00 240.17L9.98 239.77L7.70 238.93L7.02 238.57L4.43 236.68L3.72 236.00L2.46 234.50L0.98 231.82L0.17 228.81L0 226.22L0.29 223.43L1.32 220.28L2.33 218.53L3.88 216.63L6.77 214.32L9.81 212.87L12.63 212.22L15.58 212.05ZM28.66 212.05L58.76 212.05L58.87 212.35L58.87 213.70L58.33 213.70L57.01 213.88L56.48 214.11L56.11 214.49L55.86 215.01L55.60 216.64L55.60 235.12L55.83 236.79L56.14 237.60L56.31 237.78L56.54 237.97L57.06 238.19L57.99 238.39L58.73 238.42L58.78 238.74L58.78 239.89L58.53 239.97L47.20 240L47.20 238.76L47.24 238.42L47.62 238.42L48.62 238.28L49.40 237.97L49.94 237.33L50.24 236.50L50.34 235.49L50.34 216.98L50.10 215.39L49.86 214.84L37.76 214.84L37.46 214.89L37.29 215.49L37.12 217.59L37.15 235.35L37.53 237.24L37.80 237.74L38.24 238.05L39.11 238.34L40.13 238.42Q40.30 238.43 40.33 238.59L40.33 240L28.80 240L28.75 239.66L28.75 238.54L29.03 238.42L29.71 238.36L30.64 238.14L31.09 237.85L31.45 237.41L31.76 236.62L31.90 235.64L31.93 217.51L31.67 215.49L31.36 214.66L31.19 214.44L30.78 214.08L30.52 213.98L29.64 213.74L28.66 213.70L28.66 212.05ZM77.62 211.82L81.10 212.43L83.67 213.51L85.58 214.78L87.24 216.30L88.85 218.35L89.92 220.44L90.75 223.71L90.83 226.75L90.27 230.31L89.10 233.21L87.79 235.10L85.68 237.09L82.85 238.81L79.78 239.83L76.15 240.29L72.70 240.09L71.92 239.97L69.83 239.33L67.18 237.89L64.74 235.78L62.50 232.56L61.44 229.51L61.30 228.73L61.12 225.76L61.43 222.87L62.17 220.42L63.66 217.82L65.64 215.74L68.06 214.04L70.85 212.74L74.17 211.96L77.62 211.82M76.12 213.98L74.85 214.05L73.19 214.42L71.38 215.28L70.60 215.85L69.33 217.26L67.50 220.81L66.84 223.49L66.73 227.31L67.26 230.14L68.39 233.02L69.69 235.10L70.96 236.48L71.73 237.05L72.59 237.54L74.66 238.14L77.21 238.19L79.36 237.69L81.08 236.73L82.40 235.38L83.92 232.82L84.94 229.85L85.33 225.65L84.91 222.61L84.48 221.03L83.67 219.15L82.09 216.69L81.13 215.66L79.93 214.83L79.00 214.42L77.95 214.15L76.12 213.98ZM106.69 212.08L108.83 212.60L110.50 213.53L111.21 214.13L111.83 214.84L112.48 215.91L112.83 216.89L113.09 218.39L112.89 221.63L112.21 223.57L111.52 224.62L110.70 225.55L109.48 226.53L107.18 227.72L105.84 228.14L100.55 228.55L100.55 235.81L100.78 236.93L101.03 237.52L101.23 237.78L101.74 238.12L102.43 238.33L103.76 238.43L103.76 239.63L103.71 240L92.02 240L92.02 238.50L93.87 238.19L94.44 237.85L94.81 237.35L94.92 237.04L95.26 234.75L95.20 216.46L94.92 215.01L94.64 214.41L94.41 214.19L93.84 213.87L92.80 213.65L92.02 213.62L92.02 212.05L106.69 212.08M100.52 214.16L100.52 226.89L102.63 226.89L104.16 226.55L105.04 226.19L105.80 225.69L106.44 225.07L106.69 224.70L107.43 222.93L107.71 221.35L107.77 219.68L107.54 217.88L107.40 217.40L107.01 216.55L106.50 215.80L106.18 215.53L105.45 215.01L104.56 214.61L102.52 214.19L100.81 214.13L100.52 214.16ZM116.76 212.13L117.88 212.13L118.33 212.24L118.68 212.44L119.10 212.58L121.49 212.87L133.30 212.87L135.30 212.60L135.72 212.49L136.48 212.16L137.81 212.13L139.86 219.12L138.25 219.15Q138.04 219.11 137.94 218.90L137.81 218.52L136.84 216.73L135.83 215.57L135.53 215.32L134.84 214.91L134.03 214.63L133.12 214.46L129.86 214.41L129.89 235.61L130.03 236.59L130.28 237.41L130.48 237.75L130.79 238.00L131.15 238.20L132.00 238.42L133.04 238.50L133.05 240L121.52 240L121.54 238.48L122.34 238.45L123.26 238.25L123.64 238.08L123.95 237.86L124.20 237.55L124.37 237.19L124.59 236.34L124.71 235.33L124.71 214.41L121.77 214.44L120.73 214.60L119.91 214.86L119.18 215.22L118.33 215.99L117.21 217.60L116.55 219.12L114.72 219.15L116.76 212.13ZM156.80 212.05L165.46 213.74L165.99 213.94L166.84 220.69L166.60 220.80L165.39 221.00Q165.22 220.84 165.14 220.56L164.27 218.64L162.95 216.84L162.24 216.16L161.26 215.45L160.83 215.20L159.56 214.70L157.19 214.32L155.54 214.32L153.75 214.63L151.58 215.56L150.41 216.46L149.56 217.35L148.23 219.46L147.48 221.15L146.80 224.27L146.74 224.90L146.96 228.48L147.59 230.95L148.68 233.32L149.92 235.21L151.11 236.42L152.38 237.23L154.43 237.94L155.03 238.05L157.98 238.05L159.37 237.75L161.06 237.01L161.70 236.61L163.45 234.92L164.53 233.24L165.53 230.75L165.67 230.59L167.11 230.89L167.14 231.10L165.93 237.89L162.71 239.18L159.08 240.02L154.83 240.29L153.22 240.17L151.20 239.77L148.93 238.93L148.24 238.57L145.66 236.68L144.94 236.00L143.69 234.50L142.20 231.82L141.39 228.81L141.22 226.22L141.52 223.43L142.54 220.28L143.55 218.53L145.10 216.63L148.00 214.32L151.03 212.87L153.85 212.22L156.80 212.05ZM200.68 213.84L199.41 214.01L198.76 214.19L198.17 214.52L197.77 214.97L197.63 215.28L197.41 216.35L197.35 218.01L197.49 236.16L197.66 236.84L197.97 237.43L198.37 237.88L198.93 238.19L199.61 238.36L200.68 238.45L200.68 239.94L200.62 240.02L199.55 239.94L191.43 240.02L191.43 238.81L191.47 238.45L193.60 237.94L193.81 237.74L194.02 237.49L194.25 236.87L194.47 235.77L194.81 217.73L175.49 240.11L175.28 240.31L173.56 240.31Q173.35 240.29 173.21 240.19L172.98 216.49L172.80 215.35L172.67 215.04L172.33 214.52L171.88 214.11L171.60 213.98L171.23 213.88L169.88 213.84L169.88 212.61L169.94 212.22L179.00 212.22L179.12 212.25L179.12 213.84L177.82 213.98L177.17 214.19L176.62 214.53L176.27 215.04L176.00 215.66L175.79 216.73L175.69 231.44L175.76 231.75L192.54 212.43L192.78 212.22L193.18 212.29L200.68 212.22L200.68 213.84ZM217.95 211.43L228.10 213.60L228.86 213.60L229.77 213.42L229.98 213.25L230.02 213.03L229.88 212.72L229.70 212.52L228.21 211.77L228.38 211.43L229.60 211.93L230.30 212.35L230.86 212.91L231.14 213.39L231.20 213.73L231.09 214.36L230.84 214.86L230.29 215.42L229.59 215.84L228.77 216.18L227.91 216.39L227.82 216.70L227.74 235.26L227.96 236.87L228.16 237.43L228.47 237.88L228.69 238.05L229.46 238.36L230.84 238.50L230.84 239.97L230.58 240L219.62 240L219.56 239.66L219.56 238.54L219.87 238.47L220.57 238.40L221.19 238.26L221.68 238.05L221.92 237.88L222.07 237.69L222.52 236.62L222.63 235.61L222.66 218.10L222.38 216.11L222.20 215.96L218.72 214.92L218.51 215.00L218.20 215.42L217.98 215.97L217.84 216.95L217.81 225.14L217.50 227.83L216.63 230.72L214.10 234.90L211.53 237.57L210.07 238.74L209.38 239.16L208.32 239.61L207.14 239.92L206.48 240L205.04 240L204.14 239.78L203.92 239.64L203.72 239.44L203.61 239.19L203.58 238.95L204.66 236.54L205.14 235.89L205.75 235.40L206.09 235.33L206.68 235.47L208.38 236.06L209.05 236.12L210.06 236.02L210.59 235.78L211.03 235.50L211.56 234.90L212.17 233.64L212.57 232.19L212.79 225.31L212.72 225.00L212.72 218.24L212.48 218.13L211.31 217.79L210.59 217.40L210.00 216.87L209.72 216.39L209.58 215.79L209.58 215.42L209.64 215.09L209.83 214.53L210.10 214.05L210.86 213.32L212.51 212.35L215.13 211.63L217.95 211.43M211.14 214.64L210.72 214.92L210.41 215.31L210.34 215.90L210.48 216.42L210.77 216.84L211.59 217.37L212.65 217.71L212.72 217.63L212.62 216.56L212.31 215.51L212.03 215.09L211.64 214.81Q211.42 214.70 211.14 214.64ZM248.47 229.41L240.42 229.41L238.69 233.99Q238.66 234.03 238.63 234.09Q238.61 234.16 238.61 234.25Q238.44 234.62 238.27 235.07Q238.10 235.52 238.05 235.94Q238.02 236.11 238.00 236.28Q237.97 236.45 237.97 236.62Q237.97 237.67 238.67 237.99Q239.37 238.31 240.22 238.36Q240.35 238.39 240.43 238.39Q240.52 238.39 240.64 238.39Q240.72 238.39 240.80 238.41Q240.89 238.43 240.98 238.43L240.98 240Q239.66 239.88 238.35 239.83Q237.04 239.78 235.73 239.78Q234.55 239.78 233.34 239.83Q232.13 239.88 231.00 240L230.95 238.43Q231.54 238.39 232.12 238.26Q232.69 238.14 233.15 237.72Q233.48 237.41 233.84 236.88Q234.21 236.36 234.58 235.68Q234.92 235.06 235.24 234.35Q235.56 233.64 235.85 232.93Q236.41 231.66 236.87 230.50Q237.34 229.34 237.63 228.61L241.18 220.02Q241.99 218.16 242.71 216.25Q243.43 214.35 244.11 212.44L247.62 210.92Q248.30 213.12 249.02 215.32Q249.74 217.52 250.45 219.73L254.02 230.10Q254.22 230.78 254.50 231.71Q254.78 232.64 255.12 233.64Q255.71 235.38 256.70 236.88Q257.69 238.39 259.35 238.43L259.35 240Q258.62 239.95 257.92 239.91Q257.23 239.88 256.51 239.83Q255.78 239.83 255.09 239.81Q254.39 239.78 253.68 239.78Q252.92 239.78 252.15 239.81Q251.38 239.83 250.67 239.83Q249.91 239.88 249.15 239.91Q248.39 239.95 247.62 240L247.62 238.43Q247.79 238.43 247.96 238.43Q248.13 238.43 248.30 238.43Q249.10 238.39 249.76 238.07Q250.42 237.75 250.42 236.78Q250.42 236.11 250.25 235.43Q250.08 234.75 249.91 234.11Q249.86 233.95 249.82 233.80Q249.79 233.64 249.74 233.52L248.47 229.41L248.47 229.41M247.62 227.13L244.83 217.82L241.28 227.13L247.62 227.13L247.62 227.13Z" fill="#000000" style="fill: rgb(0, 0, 0);"></path></g><g id="SvgjsG1104" rel="mainfill" name="symbol" xmlns:name="symbol_mainfill" transform="translate(89.81519126892088,-4.30087890625) scale(0.8)" fill="#000000"><g transform="translate(0,-953.36218)" fill="#000000"><g transform="matrix(3.7320709,-0.01085281,0.01085281,3.7320709,-8208.7976,-3011.3128)" fill="#000000"><path style="fill: rgb(0, 0, 0);" d="m 2217.1124,1070.2266 -14.3325,-4e-4 c 0,0.5143 0.033,1.0738 0.043,1.6632 l -0.5005,0 -4.3112,6e-4 c -0.033,4.5888 1.6873,9.8986 7.1621,9.9815 0.8612,1.418 2.0423,2.71 3.6682,3.7455 l 0,3.1593 -4.2994,0 0,0.7932 -1.7871,0 -1.2471,4.2767 16.7455,0 -1.1217,-4.2776 -1.7859,0 0,-0.7945 -4.2994,0 0,-3.1785 c 1.6075,-1.0238 2.7721,-2.2944 3.622,-3.7409 5.1768,-0.3151 6.8037,-5.4855 6.7862,-9.9677 l -4.3112,-7e-4 -0.1241,0 c 0.033,-0.5497 0.064,-1.1025 0.09,-1.6567 z m 2.7825,3.0892 c 0,3.107 -1.0778,6.6776 -4.5076,7.1118 0.9179,-2.1429 1.3124,-4.5773 1.5287,-7.1118 l 2.9789,0 z m -17.2303,0 0.228,0 c 0.1408,2.2537 0.4951,4.8026 1.5461,7.1426 -3.7118,-0.2247 -4.8787,-3.932 -4.8663,-7.1447 l 3.0925,0 z" fill="#000000" fill-opacity="1" stroke="none"></path></g></g></g></svg>